<svg xmlns="http://www.w3.org/2000/svg" width="900" height="460" viewBox="0 0 900 460"><style>
text{font-family:Arial,sans-serif;fill:#e8eef5}.t{font-size:25px;font-weight:700}.h{font-size:18px;font-weight:700}.s{font-size:13px;fill:#aebdca}.v{font-size:20px;font-weight:700}.box{fill:#102737;stroke:#315064;stroke-width:1}.chip{fill:#16364a}.gold{fill:#f4bd20}.line{stroke:#f4bd20;stroke-width:4;fill:none}.blue{stroke:#35a9e8}.green{stroke:#36c46a}.red{stroke:#ee5757}
</style><rect width="900" height="460" fill="#061521"/><text x="32" y="42" class="t">1 · Aktuelle Werte</text><text x="32" y="68" class="s">Home Assistant · Multi-Inverter + JK-BMS Dashboard</text>
<rect x="30" y="92" width="840" height="330" rx="12" class="box"/>
<text x="55" y="125" class="h">Energiefluss (aktuell)</text>
<rect x="55" y="145" width="180" height="86" rx="8" class="chip"/><text x="72" y="172" class="s">PV gesamt</text><text x="72" y="207" class="v">12.8 kW</text>
<rect x="255" y="145" width="180" height="86" rx="8" class="chip"/><text x="272" y="172" class="s">Haus</text><text x="272" y="207" class="v">4.1 kW</text>
<rect x="455" y="145" width="180" height="86" rx="8" class="chip"/><text x="472" y="172" class="s">Batterie · 78 %</text><text x="472" y="207" class="v">3.6 kW</text>
<rect x="655" y="145" width="180" height="86" rx="8" class="chip"/><text x="672" y="172" class="s">Netz · Export</text><text x="672" y="207" class="v">−5.1 kW</text>
<text x="55" y="270" class="h">Wechselrichter</text>
<rect x="55" y="288" width="240" height="95" rx="8" class="chip"/><text x="72" y="315" class="s">Wechselrichter 1 · Deye</text><text x="72" y="348" class="v">6.4 kW</text><text x="72" y="370" class="s">Status: Normal</text>
<rect x="330" y="288" width="240" height="95" rx="8" class="chip"/><text x="347" y="315" class="s">Wechselrichter 2 · Solis</text><text x="347" y="348" class="v">4.9 kW</text><text x="347" y="370" class="s">Status: Generating</text>
<rect x="605" y="288" width="230" height="95" rx="8" class="chip"/><text x="622" y="315" class="s">Wechselrichter 3 · optional</text><text x="622" y="348" class="v">1.5 kW</text><text x="622" y="370" class="s">z. B. Hoymiles</text></svg>