<svg xmlns="http://www.w3.org/2000/svg" width="900" height="460" viewBox="0 0 900 460"><style>
text{font-family:Arial,sans-serif;fill:#e8eef5}.t{font-size:25px;font-weight:700}.h{font-size:18px;font-weight:700}.s{font-size:13px;fill:#aebdca}.v{font-size:20px;font-weight:700}.box{fill:#102737;stroke:#315064;stroke-width:1}.chip{fill:#16364a}.gold{fill:#f4bd20}.line{stroke:#f4bd20;stroke-width:4;fill:none}.blue{stroke:#35a9e8}.green{stroke:#36c46a}.red{stroke:#ee5757}
</style><rect width="900" height="460" fill="#061521"/><text x="32" y="42" class="t">5 · Einstellungen JK BMS</text><text x="32" y="68" class="s">Home Assistant · Multi-Inverter + JK-BMS Dashboard</text>
<rect x="30" y="92" width="840" height="330" rx="12" class="box"/>
<text x="55" y="125" class="h">Gesamtbatterie</text>
<rect x="55" y="145" width="180" height="82" rx="8" class="chip"/><text x="72" y="172" class="s">SOC</text><text x="72" y="207" class="v">78 %</text>
<rect x="255" y="145" width="180" height="82" rx="8" class="chip"/><text x="272" y="172" class="s">Spannung</text><text x="272" y="207" class="v">52.4 V</text>
<rect x="455" y="145" width="180" height="82" rx="8" class="chip"/><text x="472" y="172" class="s">Strom</text><text x="472" y="207" class="v">80 A</text>
<rect x="655" y="145" width="180" height="82" rx="8" class="chip"/><text x="672" y="172" class="s">Delta Zellen</text><text x="672" y="207" class="v">11 mV</text>
<text x="55" y="268" class="h">Packs</text>
<rect x="55" y="285" width="780" height="92" rx="8" class="chip"/><text x="72" y="313" class="s">Pack 1 (Master) · 79 % · 52.5 V · OK</text><text x="72" y="339" class="s">Pack 2 (Slave 1) · 78 % · 52.4 V · OK</text><text x="420" y="313" class="s">Pack 3 (Slave 2) · 77 % · 52.3 V · OK</text><text x="420" y="339" class="s">Zellspannungen · Temperaturen · Balancer · Alarme</text></svg>